<?xml version="1.0" encoding="utf-8"?>
<!-- Generator: Adobe Illustrator 24.1.1, SVG Export Plug-In . SVG Version: 6.00 Build 0)  -->
<svg version="1.1" id="Layer_1" xmlns="http://www.w3.org/2000/svg" xmlns:xlink="http://www.w3.org/1999/xlink" x="0px" y="0px"
	 viewBox="0 0 512 512" style="enable-background:new 0 0 512 512;" xml:space="preserve">
<g>
	<path d="M389.1,182.8c34.1,0,63.1,11.6,87,34.8s35.8,51.5,35.8,85s-11.9,61.8-35.8,85c-23.9,23.2-52.9,34.8-87,34.8h-97.3v-97.3
		h54.3L256,207.4l-89.1,117.8h53.2v97.3h-127c-25.3,0-47.1-8.9-65.5-26.6S0,356.9,0,332.3c0-25.3,9-46.8,27.1-64.5
		s40.1-26.6,66-26.6c4.8,0,8.2,0.3,10.2,1c-0.7-4.1-1-10.6-1-19.5c0-36.9,13.3-68.3,39.9-94.2s58.7-38.9,96.3-38.9
		c30.7,0,58,8.9,81.9,26.6s39.9,40.6,48.1,68.6C378.2,183.5,385,182.8,389.1,182.8"/>
</g>
</svg>
